<mxfile host="app.diagrams.net" modified="2024-03-04T03:32:55.251Z" agent="Mozilla/5.0 (Macintosh; Intel Mac OS X 10_15_7) AppleWebKit/537.36 (KHTML, like Gecko) Chrome/122.0.0.0 Safari/537.36" version="23.1.8" etag="k91RXs3AyRGNsOlyqRSV" type="github">
  <diagram name="第 1 页" id="AxYBR2adz3uq5oS4QCeM">
    <mxGraphModel>
      <root>
        <mxCell id="0" />
        <mxCell id="1" parent="0" />
      </root>
    </mxGraphModel>
  </diagram>
</mxfile>
